<svg version="1.1" id="Layer_1" xmlns="http://www.w3.org/2000/svg" xmlns:xlink="http://www.w3.org/1999/xlink" x="0px" y="0px"
	 width="100%" viewBox="0 0 480 480" enable-background="new 0 0 480 480" xml:space="preserve">
<path fill="#FFFFFF" opacity="1.000000" stroke="none" 
	d="
M0.999999,215.000000 
	C1.000000,143.701279 1.000000,72.402557 1.000000,1.051921 
	C160.887726,1.051921 320.775482,1.051921 481.000000,1.051921 
	C481.000000,69.021065 481.000000,137.042679 480.572906,205.748062 
	C462.826355,206.406174 445.506348,206.460373 428.187622,206.335709 
	C403.616791,206.158844 377.291748,229.441193 379.466949,256.647766 
	C380.248322,266.420990 379.858948,276.289978 379.946045,286.115753 
	C380.003265,292.566956 379.956879,299.019073 379.956879,305.749695 
	C388.648956,305.749695 396.692474,305.749695 405.224091,305.749695 
	C405.224091,303.822388 405.224182,302.197205 405.224091,300.571991 
	C405.223267,285.748413 405.219666,270.924866 405.222412,256.101288 
	C405.225037,241.869980 415.870911,231.124588 430.035461,231.087646 
	C447.023621,231.043335 464.011810,231.027924 481.000000,231.000000 
	C481.000000,314.295990 481.000000,397.591980 481.000000,480.943970 
	C321.109070,480.943970 161.218124,480.943970 1.000000,480.943970 
	C1.000000,400.312195 1.000000,319.623932 1.321347,238.699371 
	C3.742908,251.221390 7.134499,263.497650 15.017769,274.456024 
	C36.897358,306.276550 67.189278,320.842377 104.741760,314.418091 
	C150.236420,306.635132 174.567383,277.033112 180.826614,231.891266 
	C189.040222,231.891266 197.287125,231.891266 206.148376,231.891266 
	C206.148376,257.435944 206.148376,282.643524 206.148376,307.658691 
	C214.689224,307.658691 222.601471,307.658691 230.964615,307.658691 
	C230.964615,282.184204 230.964615,257.093872 230.964615,231.392273 
	C243.643127,231.392273 255.865326,231.392273 268.233765,231.392273 
	C268.233765,222.867905 268.233765,214.964020 268.233765,206.623489 
	C242.918152,206.623489 217.950882,206.623489 192.792786,206.447754 
	C191.802948,206.325439 191.003952,206.378891 189.758820,206.486862 
	C186.817032,206.521851 184.305069,206.314850 181.829803,206.530060 
	C178.707886,206.801483 177.652191,205.378784 176.782486,202.507874 
	C164.941620,163.420883 128.118362,136.754028 88.519333,138.413712 
	C45.316692,140.224426 11.346218,168.732056 2.538772,210.524155 
	C2.215909,212.056168 1.521340,213.509827 0.999999,215.000000 
M361.507263,206.893845 
	C357.697662,206.893845 353.888031,206.893845 349.578491,206.893845 
	C349.578491,209.081345 349.578369,210.881454 349.578522,212.681564 
	C349.580109,229.341415 349.623657,246.001419 349.566925,262.661072 
	C349.535095,272.014709 345.621063,277.699768 336.945160,280.958405 
	C328.495880,284.131958 319.953491,284.116455 311.541229,280.852203 
	C302.875854,277.489777 299.112549,271.786163 299.102173,262.429352 
	C299.083710,245.769516 299.096863,229.109634 299.096771,212.449783 
	C299.096771,210.691116 299.096771,208.932449 299.096771,207.261154 
	C290.341766,207.261154 282.280212,207.261154 274.107239,207.261154 
	C274.107239,227.599579 273.695679,247.582520 274.266968,267.537323 
	C274.591614,278.876190 280.044708,288.391754 289.203796,295.223999 
	C306.274231,307.957764 325.307465,310.146851 345.164520,303.697235 
	C364.877563,297.294403 374.858551,282.576050 374.863983,261.736755 
	C374.867981,246.243088 374.864838,230.749420 374.864868,215.255753 
	C374.864868,212.636246 374.864868,210.016739 374.864868,206.893814 
	C370.407745,206.893814 366.453339,206.893814 361.507263,206.893845 
z"/>
<path fill="#C43D42" opacity="1.000000" stroke="none" 
	d="
M14.954062,274.120941 
	C7.134499,263.497650 3.742908,251.221390 1.321347,238.231506 
	C1.000000,230.645752 1.000000,223.291504 0.999999,215.468628 
	C1.521340,213.509827 2.215909,212.056168 2.538772,210.524155 
	C11.346218,168.732056 45.316692,140.224426 88.519333,138.413712 
	C128.118362,136.754028 164.941620,163.420883 176.782486,202.507874 
	C177.652191,205.378784 178.707886,206.801483 181.829803,206.530060 
	C184.305069,206.314850 186.817032,206.521851 189.646088,206.857529 
	C180.669266,212.488541 171.388229,217.855789 162.021408,223.068954 
	C160.377228,223.984039 158.373337,224.252808 156.518890,224.376480 
	C154.636154,184.950653 118.636284,156.859436 80.143044,162.711975 
	C37.424644,169.206924 11.757474,217.162903 31.187771,255.334595 
	C33.525108,259.449280 35.832878,263.220642 37.733780,267.106628 
	C32.426666,267.766144 27.517712,268.247437 22.634483,268.916504 
	C21.790514,269.032166 21.055626,269.943909 20.053448,270.824677 
	C18.209049,272.147919 16.581556,273.134430 14.954062,274.120941 
z"/>
<path fill="#C33D41" opacity="1.000000" stroke="none" 
	d="
M481.000000,230.531357 
	C464.011810,231.027924 447.023621,231.043335 430.035461,231.087646 
	C415.870911,231.124588 405.225037,241.869980 405.222412,256.101288 
	C405.219666,270.924866 405.223267,285.748413 405.224091,300.571991 
	C405.224182,302.197205 405.224091,303.822388 405.224091,305.749695 
	C396.692474,305.749695 388.648956,305.749695 379.956879,305.749695 
	C379.956879,299.019073 380.003265,292.566956 379.946045,286.115753 
	C379.858948,276.289978 380.248322,266.420990 379.466949,256.647766 
	C377.291748,229.441193 403.616791,206.158844 428.187622,206.335709 
	C445.506348,206.460373 462.826355,206.406174 480.572906,206.215912 
	C481.000000,214.020905 481.000000,222.041809 481.000000,230.531357 
z"/>
<path fill="#C43D41" opacity="1.000000" stroke="none" 
	d="
M15.017770,274.456024 
	C16.581556,273.134430 18.209049,272.147919 20.318182,270.870422 
	C21.155478,270.628540 21.511135,270.677582 22.135931,271.066895 
	C26.348349,271.649689 30.526155,273.926453 34.430206,269.987823 
	C36.916595,269.910736 38.969730,269.916565 41.169281,270.226105 
	C42.485909,271.709534 43.603680,272.947266 44.834175,274.060364 
	C64.230606,291.606689 86.717255,296.989258 111.449226,288.890320 
	C135.411591,281.043335 150.148682,264.041504 155.624359,238.895935 
	C157.074448,237.427643 158.132782,235.927856 159.572906,235.066223 
	C172.307159,227.447281 184.713043,219.475113 192.983612,206.623489 
	C217.950882,206.623489 242.918152,206.623489 268.233765,206.623489 
	C268.233765,214.964020 268.233765,222.867905 268.233765,231.392273 
	C255.865326,231.392273 243.643127,231.392273 230.964615,231.392273 
	C230.964615,257.093872 230.964615,282.184204 230.964615,307.658691 
	C222.601471,307.658691 214.689224,307.658691 206.148376,307.658691 
	C206.148376,282.643524 206.148376,257.435944 206.148376,231.891266 
	C197.287125,231.891266 189.040222,231.891266 180.826614,231.891266 
	C174.567383,277.033112 150.236420,306.635132 104.741760,314.418091 
	C67.189278,320.842377 36.897358,306.276550 15.017770,274.456024 
z"/>
<path fill="#C43D41" opacity="1.000000" stroke="none" 
	d="
M362.003113,206.893829 
	C366.453339,206.893814 370.407745,206.893814 374.864868,206.893814 
	C374.864868,210.016739 374.864868,212.636246 374.864868,215.255753 
	C374.864838,230.749420 374.867981,246.243088 374.863983,261.736755 
	C374.858551,282.576050 364.877563,297.294403 345.164520,303.697235 
	C325.307465,310.146851 306.274231,307.957764 289.203796,295.223999 
	C280.044708,288.391754 274.591614,278.876190 274.266968,267.537323 
	C273.695679,247.582520 274.107239,227.599579 274.107239,207.261154 
	C282.280212,207.261154 290.341766,207.261154 299.096771,207.261154 
	C299.096771,208.932449 299.096771,210.691116 299.096771,212.449783 
	C299.096863,229.109634 299.083710,245.769516 299.102173,262.429352 
	C299.112549,271.786163 302.875854,277.489777 311.541229,280.852203 
	C319.953491,284.116455 328.495880,284.131958 336.945160,280.958405 
	C345.621063,277.699768 349.535095,272.014709 349.566925,262.661072 
	C349.623657,246.001419 349.580109,229.341415 349.578522,212.681564 
	C349.578369,210.881454 349.578491,209.081345 349.578491,206.893845 
	C353.888031,206.893845 357.697662,206.893845 362.003113,206.893829 
z"/>
<path fill="#C5BDBF" opacity="1.000000" stroke="none" 
	d="
M21.866791,270.726624 
	C21.511135,270.677582 21.155478,270.628540 20.535088,270.533691 
	C21.055626,269.943909 21.790514,269.032166 22.634483,268.916504 
	C27.517712,268.247437 32.426666,267.766144 38.166504,267.094971 
	C41.797104,266.658356 44.600357,266.431580 47.377193,266.024597 
	C70.384010,262.652405 92.958626,257.490723 114.832741,249.503159 
	C117.495552,248.530792 120.027779,247.200836 122.620522,246.036591 
	C122.476906,245.591812 122.333290,245.147034 122.189674,244.702255 
	C98.321075,252.137314 73.968819,256.273712 48.998390,255.853119 
	C49.016270,255.408493 49.023293,255.230637 49.459175,255.033493 
	C56.785225,254.300964 63.738522,253.930481 70.569481,252.812515 
	C94.532578,248.890579 117.799187,242.387512 140.176956,232.913940 
	C145.769653,230.546265 151.090027,227.535324 156.535553,224.820038 
	C158.373337,224.252808 160.377228,223.984039 162.021408,223.068954 
	C171.388229,217.855789 180.669266,212.488541 190.092209,206.803009 
	C191.003952,206.378891 191.802948,206.325439 192.792786,206.447754 
	C184.713043,219.475113 172.307159,227.447281 159.572906,235.066223 
	C158.132782,235.927856 157.074448,237.427643 155.385956,238.626404 
	C153.719162,238.860397 152.385147,238.851944 151.309418,239.374832 
	C123.572983,252.856720 94.186394,260.909729 63.909660,266.055206 
	C56.281956,267.351501 48.651863,268.633728 41.022865,269.922424 
	C38.969730,269.916565 36.916595,269.910736 33.976097,269.945984 
	C29.348087,270.233612 25.607439,270.480133 21.866791,270.726624 
z"/>
<path fill="#FFFEFE" opacity="1.000000" stroke="none" 
	d="
M156.518890,224.376465 
	C151.090027,227.535324 145.769653,230.546265 140.176956,232.913940 
	C117.799187,242.387512 94.532578,248.890579 70.569481,252.812515 
	C63.738522,253.930481 56.785225,254.300964 48.996490,254.998657 
	C44.411079,254.992004 40.717209,255.000870 36.637383,255.004684 
	C35.479568,255.008682 34.707706,255.017761 33.727310,255.036423 
	C33.518776,255.046021 33.101276,255.044373 32.777584,255.030197 
	C32.021996,255.007767 31.590099,254.999512 31.158203,254.991257 
	C11.757474,217.162903 37.424644,169.206924 80.143044,162.711975 
	C118.636284,156.859436 154.636154,184.950653 156.518890,224.376465 
z"/>
<path fill="#FAFAFA" opacity="1.000000" stroke="none" 
	d="
M31.187771,255.334595 
	C31.590099,254.999512 32.021996,255.007767 32.844002,255.184143 
	C33.468021,255.243774 33.701931,255.135300 33.935837,255.026825 
	C34.707706,255.017761 35.479568,255.008682 36.717415,255.393799 
	C41.118107,255.898621 45.052818,256.009247 48.987530,256.119873 
	C73.968819,256.273712 98.321075,252.137314 122.189674,244.702255 
	C122.333290,245.147034 122.476906,245.591812 122.620522,246.036591 
	C120.027779,247.200836 117.495552,248.530792 114.832741,249.503159 
	C92.958626,257.490723 70.384010,262.652405 47.377193,266.024597 
	C44.600357,266.431580 41.797104,266.658356 38.573372,266.980316 
	C35.832878,263.220642 33.525108,259.449280 31.187771,255.334595 
z"/>
<path fill="#FEFDFD" opacity="1.000000" stroke="none" 
	d="
M41.169281,270.226105 
	C48.651863,268.633728 56.281956,267.351501 63.909660,266.055206 
	C94.186394,260.909729 123.572983,252.856720 151.309418,239.374832 
	C152.385147,238.851944 153.719162,238.860397 155.171234,238.890823 
	C150.148682,264.041504 135.411591,281.043335 111.449226,288.890320 
	C86.717255,296.989258 64.230606,291.606689 44.834175,274.060364 
	C43.603680,272.947266 42.485909,271.709534 41.169281,270.226105 
z"/>
<path fill="#C43D42" opacity="1.000000" stroke="none" 
	d="
M22.135929,271.066895 
	C25.607439,270.480133 29.348087,270.233612 33.542847,270.028931 
	C30.526155,273.926453 26.348349,271.649689 22.135929,271.066895 
z"/>
<path fill="#D4D5D6" opacity="1.000000" stroke="none" 
	d="
M48.998390,255.853119 
	C45.052818,256.009247 41.118107,255.898621 37.103363,255.398865 
	C40.717209,255.000870 44.411079,254.992004 48.567635,255.017944 
	C49.023293,255.230637 49.016270,255.408493 48.998390,255.853119 
z"/>
<path fill="#D4D5D6" opacity="1.000000" stroke="none" 
	d="
M33.727306,255.036423 
	C33.701931,255.135300 33.468021,255.243774 33.167694,255.198303 
	C33.101276,255.044373 33.518776,255.046021 33.727306,255.036423 
z"/>
</svg>